<svg xmlns="http://www.w3.org/2000/svg" width="400" height="400">
<defs>
</defs>
<path d="M341.624,235.523 C331.974,261.076 306.871,274.779 279.936,274.829 C279.936,274.829 204.236,274.972 204.236,274.972 C204.236,274.972 204.041,157.278 204.041,157.278 C204.041,157.278 161.915,212.89 161.915,212.89 C161.915,212.89 161.912,274.944 161.912,274.944 C161.912,274.944 119.191,274.949 119.191,274.949 C119.191,274.949 119.188,212.67 119.188,212.67 C119.188,212.67 53.7957,124.818 53.7957,124.818 C53.7957,124.818 108.005,124.696 108.005,124.696 C108.005,124.696 143.675,172.07 143.675,172.07 C143.675,172.07 180.169,124.695 180.169,124.695 C180.169,124.695 286.901,124.76 286.901,124.76 C311.828,126.024 332.349,140.605 341.39,163.916 C350.155,186.517 350.229,212.739 341.624,235.523 Z M305.533,220.918 C310.795,206.963 310.809,191.966 305.806,178.252 C301.343,166.375 290.77,158.777 277.948,158.765 C277.948,158.765 242.274,158.731 242.274,158.731 C242.274,158.731 242.248,242.044 242.248,242.044 C242.248,242.044 274.962,241.995 274.962,241.995 C288.849,241.974 300.076,233.985 305.533,220.918 Z " fill="rgb(12,58,167)"/>
<path d="M305.533,220.918 C300.076,233.985 288.849,241.974 274.962,241.995 C274.962,241.995 242.248,242.044 242.248,242.044 C242.248,242.044 242.274,158.731 242.274,158.731 C242.274,158.731 277.948,158.765 277.948,158.765 C290.77,158.777 301.343,166.375 305.806,178.252 C310.809,191.966 310.795,206.963 305.533,220.918 Z " fill="rgb(255,255,255)"/>
</svg>